<svg xmlns="http://www.w3.org/2000/svg" version="1.1" xmlns:xlink="http://www.w3.org/1999/xlink" xmlns:svgjs="http://svgjs.dev/svgjs" width="128" height="128" viewBox="0 0 128 128"><g transform="matrix(0.8046875,0,0,0.8046875,12.745343447486299,8.757686430921048)"><svg viewBox="0 0 88 95" data-background-color="#ffffff" preserveAspectRatio="xMidYMid meet" height="138" width="128" xmlns="http://www.w3.org/2000/svg" xmlns:xlink="http://www.w3.org/1999/xlink"><g id="tight-bounds" transform="matrix(1,0,0,1,-0.20961381921159727,-0.24049999999999727)"><svg viewBox="0 0 88.41922763842318 95.48100000000001" height="95.48100000000001" width="88.41922763842318"><g><svg viewBox="0 0 88.41922763842318 95.48100000000001" height="95.48100000000001" width="88.41922763842318"><g><svg viewBox="0 0 88.41922763842318 95.48100000000001" height="95.48100000000001" width="88.41922763842318"><g id="textblocktransform"><svg viewBox="0 0 88.41922763842318 95.48100000000001" height="95.48100000000001" width="88.41922763842318" id="textblock"><g><svg viewBox="0 0 88.41922763842318 95.48100000000001" height="95.48100000000001" width="88.41922763842318"><g><svg viewBox="0 0 88.41922763842318 95.48100000000001" height="95.48100000000001" width="88.41922763842318"><g><svg xmlns="http://www.w3.org/2000/svg" xmlns:xlink="http://www.w3.org/1999/xlink" version="1.1" x="0" y="0" viewBox="12.322 6.733 78.155 84.39699999999999" enable-background="new 0 0 100 100" xml:space="preserve" height="95.48100000000001" width="88.41922763842318" class="icon-icon-0" data-fill-palette-color="accent" id="icon-0"><g fill="#000000" data-fill-palette-color="accent"><path fill="none" d="M23.371 45.883V52.583C23.371 65.331 33.743 75.702 46.491 75.702 55.504 75.702 63.757 70.4 67.515 62.196L68.507 60.03 70.082 61.818A9.9 9.9 0 0 0 77.498 65.181C82.948 65.181 87.382 60.747 87.382 55.297 87.382 49.848 82.948 45.414 77.498 45.414A9.8 9.8 0 0 0 72.017 47.079L69.61 48.689V45.882C64.881 49.468 55.489 51.362 46.491 51.362 37.492 51.363 28.1 49.469 23.371 45.883"></path><g fill="#000000" data-fill-palette-color="accent"><path fill="none" d="M46.491 78.796C35.673 78.796 26.366 72.209 22.367 62.836 18.043 65.511 15.416 68.884 15.416 72.501 15.416 80.923 29.631 88.037 46.457 88.037S77.498 80.923 77.498 72.501C77.498 71.018 77.049 69.577 76.23 68.207A13 13 0 0 1 69.357 65.394C64.75 73.601 55.994 78.796 46.491 78.796"></path></g><g fill="#000000" data-fill-palette-color="accent"><path d="M77.499 48.159C73.562 48.159 70.359 51.362 70.359 55.298 70.359 59.236 73.562 62.439 77.499 62.439S84.639 59.236 84.639 55.298C84.639 51.361 81.436 48.159 77.499 48.159M77.499 60.376A5.083 5.083 0 0 1 72.422 55.298C72.422 52.499 74.699 50.221 77.499 50.221S82.576 52.499 82.576 55.298 80.299 60.376 77.499 60.376" fill="#000000" data-fill-palette-color="accent"></path><path d="M90.477 55.298C90.477 48.143 84.656 42.321 77.499 42.321 75.843 42.321 74.221 42.634 72.704 43.239V41.687H72.606C72.683 41.326 72.73 40.958 72.73 40.578 72.73 33.573 59.211 29.794 46.491 29.794S20.252 33.573 20.252 40.578C20.252 40.958 20.299 41.326 20.376 41.687H20.277V52.582C20.277 55.083 20.636 57.501 21.294 59.794 15.702 63.099 12.322 67.544 12.322 72.5 12.322 82.946 27.316 91.13 46.457 91.13S80.592 82.946 80.592 72.5C80.592 70.972 80.263 69.493 79.654 68.08 85.786 67.05 90.477 61.719 90.477 55.298M23.346 40.579C23.346 36.949 33.244 32.889 46.492 32.889S69.638 36.949 69.638 40.579C69.638 40.946 69.533 41.317 69.337 41.688 68.773 42.759 67.422 43.826 65.449 44.782 61.342 46.771 54.537 48.269 46.492 48.269S31.643 46.77 27.535 44.782C25.562 43.826 24.212 42.759 23.648 41.688 23.452 41.317 23.346 40.946 23.346 40.579M46.457 88.037C29.631 88.037 15.416 80.923 15.416 72.501 15.416 68.884 18.043 65.511 22.367 62.836 26.366 72.209 35.673 78.796 46.491 78.796 55.994 78.796 64.75 73.601 69.357 65.394A13 13 0 0 0 76.23 68.207C77.048 69.577 77.498 71.018 77.498 72.501 77.498 80.923 63.283 88.037 46.457 88.037M77.931 65.16C77.787 65.166 77.645 65.181 77.499 65.181A9.9 9.9 0 0 1 70.083 61.818L68.508 60.03 67.888 61.384 67.516 62.196C63.757 70.4 55.504 75.702 46.491 75.702 36.844 75.702 28.562 69.762 25.101 61.348A23 23 0 0 1 24.093 58.325 23 23 0 0 1 23.371 52.584V45.884C28.1 49.47 37.492 51.364 46.491 51.364 55.489 51.364 64.881 49.47 69.61 45.884V48.691L72.017 47.081A9.83 9.83 0 0 1 77.498 45.416C82.948 45.416 87.382 49.85 87.382 55.299 87.383 60.603 83.18 64.932 77.931 65.16" fill="#000000" data-fill-palette-color="accent"></path></g></g><path d="M38.029 24.253A9.6 9.6 0 0 0 36.196 25.389C35.597 25.873 35.129 26.399 34.807 26.948A3.9 3.9 0 0 0 34.251 28.712C34.216 29.287 34.326 29.897 34.577 30.523A6.8 6.8 0 0 0 35.646 32.268 11.7 11.7 0 0 0 37.241 33.855C37.54 34.105 37.856 34.344 38.174 34.578 38.319 34.682 38.474 34.788 38.629 34.892L39.132 35.229C40.369 36.064 41.362 36.88 42.087 37.657 42.982 38.618 43.528 39.566 43.758 40.556 44.019 41.608 43.881 42.756 43.345 43.958 43.178 44.332 42.977 44.708 42.74 45.088A10.4 10.4 0 0 0 44.587 43.908C45.76 42.964 46.504 41.795 46.683 40.618 46.86 39.481 46.491 38.205 45.644 37.022 45.258 36.475 44.775 35.939 44.163 35.38A16 16 0 0 0 43.269 34.632C42.954 34.392 42.646 34.171 42.287 33.927L41.408 33.345A20 20 0 0 1 40.584 32.759 17 17 0 0 1 39.115 31.539C38.117 30.594 37.48 29.678 37.166 28.739 36.801 27.687 36.889 26.509 37.421 25.337 37.582 24.982 37.785 24.62 38.029 24.253" fill="#000000" data-fill-palette-color="accent"></path><path d="M44.443 6.733C44.076 6.874 43.705 7.029 43.328 7.201A15 15 0 0 0 40.158 9.122C39.2 9.899 38.45 10.74 37.937 11.618A6.34 6.34 0 0 0 37.032 14.496C36.976 15.443 37.153 16.435 37.559 17.442 37.946 18.386 38.518 19.323 39.259 20.223 39.939 21.059 40.752 21.868 41.749 22.702 42.213 23.09 42.701 23.461 43.193 23.821 43.423 23.988 43.662 24.151 43.901 24.313L44.672 24.83C46.543 26.092 48.039 27.32 49.12 28.481 50.436 29.893 51.241 31.281 51.578 32.726 51.954 34.253 51.75 35.919 50.971 37.669 50.557 38.6 49.979 39.564 49.243 40.55 49.624 40.393 50.011 40.219 50.405 40.028A16.5 16.5 0 0 0 53.502 38.078C55.376 36.568 56.567 34.69 56.855 32.792 57.144 30.947 56.553 28.89 55.193 26.995 54.588 26.137 53.807 25.273 52.872 24.422A25 25 0 0 0 51.481 23.256 33 33 0 0 0 49.957 22.163L48.61 21.269A32 32 0 0 1 47.37 20.39 25 25 0 0 1 45.158 18.552C43.68 17.149 42.741 15.803 42.285 14.435 41.754 12.905 41.879 11.253 42.66 9.535 43.071 8.625 43.668 7.688 44.443 6.733" fill="#000000" data-fill-palette-color="accent"></path></svg></g></svg></g></svg></g></svg></g></svg></g></svg></g><defs></defs></svg><rect width="88.41922763842318" height="95.48100000000001" fill="none" stroke="none" visibility="hidden"></rect></g></svg></g></svg>