<?xml version="1.0" encoding="UTF-8" standalone="no" ?>
<!DOCTYPE svg PUBLIC "-//W3C//DTD SVG 1.1//EN" "http://www.w3.org/Graphics/SVG/1.1/DTD/svg11.dtd">
<svg xmlns="http://www.w3.org/2000/svg" xmlns:xlink="http://www.w3.org/1999/xlink" version="1.1" width="1080" height="1080" viewBox="0 0 1080 1080" xml:space="preserve">
<desc>Created with Fabric.js 5.2.4</desc>
<g transform="matrix(19.91 0 0 19.91 558.69 522.55)"  >
<path stroke="#000000" fill="#000000" stroke-width="0.5"  transform=" translate(-24.99, -26)" d="M 6.8125 7 C 6.335938 7.089844 5.992188 7.511719 6 8 C 6 19.152344 11.382813 34.644531 12.59375 38 L 3 38 C 2.96875 38 2.9375 38 2.90625 38 C 2.511719 38.027344 2.167969 38.285156 2.035156 38.65625 C 1.898438 39.027344 1.996094 39.445313 2.28125 39.71875 L 4.5625 41.96875 C 6.496094 43.902344 9.136719 45 11.875 45 L 33.125 45 C 35.863281 45 38.503906 43.902344 40.4375 41.96875 L 42.71875 39.71875 C 43.015625 39.433594 43.105469 38.992188 42.945313 38.613281 C 42.789063 38.234375 42.410156 37.992188 42 38 L 32.40625 38 C 32.753906 37.023438 33.246094 35.628906 34.09375 32.90625 C 34.769531 32.777344 37.65625 32.179688 40.71875 30.8125 C 42.457031 30.035156 44.242188 29.042969 45.625 27.6875 C 47.007813 26.332031 48 24.5625 48 22.46875 C 48 18.910156 45.089844 16 41.53125 16 C 40.300781 16 39.109375 16.34375 38.09375 16.9375 C 38.640625 13.820313 39 10.746094 39 8 C 39 7.449219 38.550781 7 38 7 L 7 7 C 6.96875 7 6.9375 7 6.90625 7 C 6.875 7 6.84375 7 6.8125 7 Z M 8.125 9 L 36.875 9 C 36.710938 14.652344 35.179688 21.820313 33.53125 27.71875 C 31.898438 33.5625 30.472656 37.476563 30.28125 38 L 14.71875 38 C 14.335938 36.945313 8.453125 20.402344 8.125 9 Z M 41.53125 18 C 44.011719 18 46 19.988281 46 22.46875 C 46 23.9375 45.339844 25.148438 44.21875 26.25 C 43.097656 27.351563 41.507813 28.285156 39.90625 29 C 37.894531 29.898438 35.976563 30.449219 34.75 30.75 C 34.996094 29.921875 35.21875 29.148438 35.46875 28.25 C 36.148438 25.824219 36.828125 23.160156 37.40625 20.46875 C 37.410156 20.445313 37.433594 20.429688 37.4375 20.40625 C 38.167969 19.015625 39.800781 18 41.53125 18 Z M 5.40625 40 L 39.59375 40 L 39.03125 40.5625 C 37.472656 42.121094 35.332031 43 33.125 43 L 11.875 43 C 9.667969 43 7.527344 42.121094 5.96875 40.5625 Z" />
</g>
</svg>